<svg xmlns="http://www.w3.org/2000/svg" viewBox="0 0 110.78 116.85"><defs><style>.cls-1{isolation:isolate;}.cls-2{fill:#ffb16e;}.cls-3{fill:#aa523e;}.cls-4{fill:#ffd7b5;opacity:0.8;mix-blend-mode:soft-light;}.cls-5{fill:#d4a79d;opacity:0.32;mix-blend-mode:multiply;}</style></defs><g class="cls-1"><g id="Camada_2" data-name="Camada 2"><g id="Camada_6" data-name="Camada 6"><path class="cls-2" d="M12.06.38C-2.44-1.2-4.84,117.07,10.24,116.49c18,4.43,99.75-34.15,100.53-44.29C112,56.91,31.78-5.43,12.06.38Z"/><path class="cls-3" d="M12.89,8.71C1.35,3.19,2.39,114.84,9.36,112.33c3.71.61,17.15-6.76,15.58-50.7C23.29,15.6,17.3,8.56,12.89,8.71Z"/><path class="cls-4" d="M44.9,98c4.81-2.12,31-8.81,27.19-15.33-1-1.68-3.15-1.85-4.74-1a132.6,132.6,0,0,1-24.8,10.17C38.53,93.05,40.81,99.24,44.9,98Z"/><path class="cls-4" d="M87.47,75.38c-1.74-4.94-7-.7-9.51.89-3.64,2.3.31,7.6,3.84,5.37C83.92,80.31,88.61,78.61,87.47,75.38Z"/><path class="cls-5" d="M36.09,15.65c-.47-1.78-3.53-2.7-5-3.23-3-1.06-5.27,3.54-2.14,4.63C31.86,18.32,36.42,21.34,36.09,15.65Z"/><path class="cls-5" d="M47.2,22.56c-.13-3.75-8.15-5.53-7-.52C41.41,25,47.06,27.23,47.2,22.56Z"/><path class="cls-5" d="M39.4,25.11c-.47-1.21-1.75-1.59-2.85-2-2.89-1.14-5.12,3.23-2.14,4.63C36.57,29.13,40.51,28.35,39.4,25.11Z"/><path class="cls-5" d="M55.2,30c-.25-3.78-6.81-3.79-5.74.53C50.35,33.41,55.5,33.63,55.2,30Z"/></g></g></g></svg>