<svg xmlns="http://www.w3.org/2000/svg" viewBox="0 0 111.68 117.91"><defs><style>.cls-1{isolation:isolate;}.cls-2,.cls-3{fill:#ffb16e;}.cls-3{opacity:0.17;mix-blend-mode:multiply;}.cls-4{fill:#aa523e;}.cls-5{fill:#ffd7b5;opacity:0.8;mix-blend-mode:soft-light;}</style></defs><g class="cls-1"><g id="Camada_2" data-name="Camada 2"><g id="Camada_3" data-name="Camada 3"><path class="cls-2" d="M101.86,116.33c11-3.55,9.38-29.89,9.78-61.41S109.38,2.09,100.81.21C82.67-3.77.53,50,0,60.18-.79,75.49,82.29,122.63,101.86,116.33Z"/><path class="cls-3" d="M81,82.55C54,79.37,24.5,76.11.26,62.82,4.75,79.58,83,123.42,101.92,117.33c7.47-2.41,9.12-15.26,9.53-33.1A244.71,244.71,0,0,1,81,82.55Z"/><path class="cls-4" d="M100.87,110c7.58-.45,7.2-16.71,6.76-54.68s-2.07-48.47-5.8-49-17,7.18-14.31,51.06C90.3,103.4,96.47,110.29,100.87,110Z"/><path class="cls-5" d="M69.33,22.51A268.17,268.17,0,0,0,41.05,37.63c-3.59,2.13.29,7.46,4,5.27A257.62,257.62,0,0,1,71.83,28.61C75.69,26.91,73.23,20.78,69.33,22.51Z"/><path class="cls-5" d="M35.32,47.1c0-2.32-2.75-4.75-5.23-3-1.69,1.15-4.9,2.5-5.54,4.61a3.33,3.33,0,0,0,5.11,3.69C31.22,51.28,35.48,49.42,35.32,47.1Z"/></g></g></g></svg>